<svg width="422.0500244140625px" height="168.835009765625px" xmlns="http://www.w3.org/2000/svg" viewBox="38.97498779296876 -9.417504882812494 422.0500244140625 168.835009765625" style="background: rgba(0, 0, 0, 0);" preserveAspectRatio="xMidYMid"><defs><filter id="editing-jagged" x="-100%" y="-100%" width="300%" height="300%"><feTurbulence result="turb" baseFrequency="0.1" numOctaves="1" seed="1"></feTurbulence><feDisplacementMap in="SourceGraphic" in2="turb" scale="10"></feDisplacementMap></filter></defs><g filter="url(#editing-jagged)"><g transform="translate(103.73500061035156, 107.80500030517578)"><path d="M20.77 0L0.75 0L11.47-57.15L12.50-62.04L32.62-62.04L20.77 0ZM58.94-5.55L58.94-5.55L58.94-5.55Q56.40 1.88 46.62 1.88L46.62 1.88L46.62 1.88Q39.39 1.88 34.40-6.77L34.40-6.77L34.40-6.77Q29.33-15.42 28.39-29.52L28.39-29.52L28.39-29.52Q38.73-48.41 45.87-56.21L45.87-56.21L45.87-56.21Q52.73-63.64 59.88-63.64L59.88-63.64L59.88-63.64Q63.73-63.64 66.50-61.57L66.50-61.57L66.50-61.57Q69.28-59.50 69.94-56.21L69.94-56.21L69.94-56.21Q66.74-54.90 65.24-53.86L65.24-53.86L65.24-53.86Q61.48-51.04 56.40-44.74L56.40-44.74L47.85-34.50L47.85-34.50Q45.78-32.05 44.93-30.93L44.93-30.93L44.93-30.93Q46.34-23.03 50.57-15.23L50.57-15.23L50.57-15.23Q54.61-7.80 58.94-5.55ZM75.86 0L81.31-27.64L81.31-27.64Q78.58-53.11 69.00-58.56L69.00-58.56L69.00-58.56Q70.97-61.01 74.17-62.37L74.17-62.37L74.17-62.37Q77.36-63.73 81.22-63.73L81.22-63.73L81.22-63.73Q85.07-63.73 87.98-62.37L87.98-62.37L87.98-62.37Q90.90-61.01 92.78-58.09L92.78-58.09L92.78-58.09Q96.35-52.55 96.35-39.29L96.35-39.29L96.35-32.52L96.35-32.52Q101.99-49.07 107.63-56.21L107.63-56.21L107.63-56.21Q113.36-63.54 120.51-63.54L120.51-63.54L120.51-63.54Q123.33-63.54 125.21-62.09L125.21-62.09L125.21-62.09Q127.09-60.63 128.03-58.47L128.03-58.47L128.03-58.47Q120.79-55.27 113.83-46.06L113.83-46.06L113.83-46.06Q106.88-36.85 102.37-23.97L102.37-23.97L96.82 0L75.86 0ZM160.36 1.88L160.36 1.88L160.36 1.88Q148.33 1.88 147.20-15.23L147.20-15.23L131.04-15.23L131.04-15.23Q129.16-10.90 127.84-7.14L127.84-7.14L125.40 0L112.24 0L141.85-62.04L162.06-62.04L166.00-16.36L166.00-16.36Q166.94-6.49 170.70-3.57L170.70-3.57L170.70-3.57Q167.98 1.88 160.36 1.88ZM139.12-34.03L133.95-22.09L146.92-22.09L145.79-46.25L145.79-48.79L139.12-34.03ZM195.43 0L175.31 0L186.78-61.76L186.78-61.76Q196.08-62.79 209.67-62.79L209.67-62.79L209.67-62.79Q223.25-62.79 229.55-58.84L229.55-58.84L229.55-58.84Q235.85-54.90 235.85-46.95L235.85-46.95L235.85-46.95Q235.85-39.01 231.76-34.03L231.76-34.03L231.76-34.03Q227.67-29.05 220.62-27.45L220.62-27.45L220.62-27.45Q222.22-19.65 225.88-13.35L225.88-13.35L225.88-13.35Q229.27-7.43 233.21-5.55L233.21-5.55L233.21-5.55Q231.80-1.60 228.94 0.14L228.94 0.14L228.94 0.14Q226.07 1.88 221.98 1.88L221.98 1.88L221.98 1.88Q217.89 1.88 214.70-0.52L214.70-0.52L214.70-0.52Q211.50-2.91 208.96-7.33L208.96-7.33L208.96-7.33Q203.60-16.92 203.04-32.05L203.04-32.05L203.70-32.05L203.70-32.05Q210.65-32.24 214.13-35.86L214.13-35.86L214.13-35.86Q217.61-39.48 217.61-47.09L217.61-47.09L217.61-47.09Q217.61-56.59 209.62-56.96L209.62-56.96L207.55-56.96L207.55-56.96Q206.71-56.96 206.24-56.87L206.24-56.87L195.43 0ZM281.44 1.88L281.44 1.88L281.44 1.88Q269.40 1.88 268.28-15.23L268.28-15.23L252.11-15.23L252.11-15.23Q250.23-10.90 248.91-7.14L248.91-7.14L246.47 0L233.31 0L262.92-62.04L283.13-62.04L287.08-16.36L287.08-16.36Q288.02-6.49 291.78-3.57L291.78-3.57L291.78-3.57Q289.05 1.88 281.44 1.88ZM260.19-34.03L255.02-22.09L267.99-22.09L266.87-46.25L266.87-48.79L260.19-34.03Z" fill="#04D361"></path></g></g><style>text {
  font-size: 64px;
  font-family: Arial Black;
  dominant-baseline: central;
  text-anchor: middle;
}</style></svg>